<svg xmlns="http://www.w3.org/2000/svg" viewBox="0 0 460 99.673"><defs><style>.a{fill:none;stroke:#60c1ea;stroke-miterlimit:10;stroke-width:2px;}</style></defs><line class="a" x1="9" y1="9" x2="64" y2="9"/><line class="a" x1="70" y1="9" x2="218" y2="9"/><line class="a" x1="229" y1="9" x2="428" y2="9"/><line class="a" x1="433" y1="9" x2="450" y2="9"/><line class="a" x1="450" y1="14" x2="450" y2="86"/><line class="a" x1="447" y1="90" x2="351" y2="90"/><line class="a" x1="344" y1="90" x2="190" y2="90"/><line class="a" x1="183" y1="90" x2="123" y2="90"/><line class="a" x1="116" y1="90" x2="9" y2="90"/><line class="a" x1="9" y1="86" x2="9" y2="13"/><line class="a" x1="1" y1="1.327" x2="28" y2="1.327"/><line class="a" x1="32" y1="1" x2="70" y2="1"/><line class="a" x1="76" y1="1.327" x2="299" y2="1.327"/><line class="a" x1="305" y1="1.327" x2="448" y2="1.327"/><line class="a" x1="453" y1="1.327" x2="459" y2="1.327"/><line class="a" x1="459" y1="45" x2="459" y2="93.866"/><line class="a" x1="459" y1="7" x2="459" y2="39.866"/><line class="a" x1="457" y1="98.673" x2="407" y2="98.673"/><line class="a" x1="397" y1="98.673" x2="166" y2="98.673"/><line class="a" x1="162" y1="98.673" x2="27" y2="98.673"/><line class="a" x1="22" y1="98.673" x2="1" y2="98.673"/><line class="a" x1="1" y1="54" x2="1" y2="6"/><line class="a" x1="1" y1="94" x2="1" y2="57"/></svg>