<svg xmlns="http://www.w3.org/2000/svg" width="103.78" height="26.132" viewBox="0 0 103.78 26.132">
  <g id="Group_42" data-name="Group 42" transform="translate(-20 -318.74)">
    <g id="Path_80" data-name="Path 80" transform="translate(123.78 329) rotate(90)" fill="#fff">
      <path d="M 13.5 12.06054306030273 L 1.306022167205811 12.06054306030273 L 13.5 1.120333075523376 L 13.5 12.06054306030273 Z" stroke="none"/>
      <path d="M 13 2.240662574768066 L 2.612044334411621 11.56054306030273 L 13 11.56054306030273 L 13 2.240662574768066 M 14 3.814697265625e-06 L 14 12.56054306030273 L 0 12.56054306030273 L 14 3.814697265625e-06 Z" stroke="none" fill="#b99ce0"/>
    </g>
    <g id="Path_81" data-name="Path 81" transform="translate(123.78 322) rotate(90)" fill="#fff">
      <path d="M 12.69399929046631 12.06079578399658 L 0.5 12.06079578399658 L 0.5 1.120339512825012 L 12.69399929046631 12.06079578399658 Z" stroke="none"/>
      <path d="M 1 2.240684509277344 L 1 11.56079578399658 L 11.38799667358398 11.56079578399658 L 1 2.240684509277344 M 0 -4.76837158203125e-06 L 14 12.56079578399658 L 0 12.56079578399658 L 0 -4.76837158203125e-06 Z" stroke="none" fill="#b99ce0"/>
    </g>
    <g id="Rectangle_69" data-name="Rectangle 69" transform="translate(20 343) rotate(-90)" fill="#fff" stroke="#b99ce0" stroke-width="1">
      <rect width="21" height="94" stroke="none"/>
      <rect x="0.5" y="0.5" width="20" height="93" fill="none"/>
    </g>
    <g id="Polygon_5" data-name="Polygon 5" transform="translate(117.286 320.437) rotate(65)" fill="#fff">
      <path d="M 7.71840763092041 8.070818901062012 L 7.169997692108154 8.070818901062012 L -2.346038854739163e-06 8.070818901062012 L -0.5484123229980469 8.070818901062012 L -0.3174523413181305 7.573418617248535 L 3.267547607421875 -0.1474012136459351 L 3.584997653961182 -0.8310711979866028 L 3.902447700500488 -0.1474012136459351 L 7.487447738647461 7.573418617248535 L 7.71840763092041 8.070818901062012 Z" stroke="none"/>
      <path d="M 3.584997653961182 -1.430511474609375e-06 L -2.384185791015625e-06 7.720818996429443 L 7.169997692108154 7.720818996429443 L 3.584997653961182 -1.430511474609375e-06 M 3.584997653961182 -1.662140846252441 L 8.266807556152344 8.420818328857422 L -1.09681224822998 8.420818328857422 L 3.584997653961182 -1.662140846252441 Z" stroke="none" fill="#fff"/>
    </g>
    <g id="Polygon_7" data-name="Polygon 7" transform="translate(117.286 320.437) rotate(65)" fill="#fff">
      <path d="M 7.71840763092041 8.070818901062012 L 7.169997692108154 8.070818901062012 L -2.346038854739163e-06 8.070818901062012 L -0.5484123229980469 8.070818901062012 L -0.3174523413181305 7.573418617248535 L 3.267547607421875 -0.1474012136459351 L 3.584997653961182 -0.8310711979866028 L 3.902447700500488 -0.1474012136459351 L 7.487447738647461 7.573418617248535 L 7.71840763092041 8.070818901062012 Z" stroke="none"/>
      <path d="M 3.584997653961182 -1.430511474609375e-06 L -2.384185791015625e-06 7.720818996429443 L 7.169997692108154 7.720818996429443 L 3.584997653961182 -1.430511474609375e-06 M 3.584997653961182 -1.662140846252441 L 8.266807556152344 8.420818328857422 L -1.09681224822998 8.420818328857422 L 3.584997653961182 -1.662140846252441 Z" stroke="none" fill="#fff"/>
    </g>
    <g id="Polygon_9" data-name="Polygon 9" transform="matrix(-0.259, 0.966, -0.966, -0.259, 118.82, 339.125)" fill="#fff">
      <path d="M 4.7939133644104 8.070818901062012 L 4.332203388214111 8.070818901062012 L 3.601455773605267e-06 8.070818901062012 L -0.4617063999176025 8.070818901062012 L -0.3369863927364349 7.626278877258301 L 1.829113602638245 -0.09454121440649033 L 2.166103601455688 -1.295701265335083 L 2.503093719482422 -0.09454121440649033 L 4.669193744659424 7.626278877258301 L 4.7939133644104 8.070818901062012 Z" stroke="none"/>
      <path d="M 2.166103601455688 -1.430511474609375e-06 L 3.814697265625e-06 7.720818996429443 L 4.332203388214111 7.720818996429443 L 2.166103601455688 -1.430511474609375e-06 M 2.166103601455688 -2.591411590576172 L 5.255613803863525 8.420818328857422 L -0.9234066009521484 8.420818328857422 L 2.166103601455688 -2.591411590576172 Z" stroke="none" fill="#fff"/>
    </g>
    <g id="Polygon_12" data-name="Polygon 12" transform="translate(112.892 339.753) rotate(-131)" fill="#fff">
      <path d="M 7.038693428039551 4.507320880889893 L 6.332203388214111 4.507320880889893 L 3.601455773605267e-06 4.507320880889893 L -0.7064864039421082 4.507320880889893 L -0.2784464061260223 3.945260763168335 L 2.887653589248657 -0.212059274315834 L 3.166103601455688 -0.5776792764663696 L 3.44455361366272 -0.212059274315834 L 6.610653400421143 3.945260763168335 L 7.038693428039551 4.507320880889893 Z" stroke="none"/>
      <path d="M 3.166103601455688 9.5367431640625e-07 L 3.814697265625e-06 4.157320499420166 L 6.332203388214111 4.157320499420166 L 3.166103601455688 9.5367431640625e-07 M 3.166103601455688 -1.155349254608154 L 7.74518346786499 4.857320785522461 L -1.412976264953613 4.857320785522461 L 3.166103601455688 -1.155349254608154 Z" stroke="none" fill="#fff"/>
    </g>
    <g id="Polygon_8" data-name="Polygon 8" transform="matrix(0.017, 1, -1, 0.017, 115.038, 325.584)" fill="#fff">
      <path d="M 8.061107635498047 3.679818630218506 L 7.169997692108154 3.679818630218506 L -2.346038854739163e-06 3.679818630218506 L -0.8911123275756836 3.679818630218506 L -0.2381923496723175 3.073368549346924 L 3.346807718276978 -0.2564513385295868 L 3.584997653961182 -0.4776813387870789 L 3.823187589645386 -0.2564513385295868 L 7.408187866210938 3.073368549346924 L 8.061107635498047 3.679818630218506 Z" stroke="none"/>
      <path d="M 3.584997653961182 -1.430511474609375e-06 L -2.384185791015625e-06 3.329818725585938 L 7.169997692108154 3.329818725585938 L 3.584997653961182 -1.430511474609375e-06 M 3.584997653961182 -0.9553713798522949 L 8.952227592468262 4.029818534851074 L -1.782232284545898 4.029818534851074 L 3.584997653961182 -0.9553713798522949 Z" stroke="none" fill="#fff"/>
    </g>
  </g>
</svg>
